<svg width="115" height="30" viewBox="0 0 115 30" fill="none" xmlns="http://www.w3.org/2000/svg">
<g clip-path="url(#clip0_2032_442)">
<path d="M2.88 27V4.152H7.712V23H16.992V27H2.88ZM41.0848 15.544C41.0848 17.3147 40.8608 18.9253 40.4128 20.376C39.9861 21.8053 39.3248 23.0427 38.4288 24.088C37.5541 25.1333 36.4234 25.9333 35.0368 26.488C33.6714 27.0427 32.0608 27.32 30.2048 27.32C28.3488 27.32 26.7274 27.0427 25.3408 26.488C23.9754 25.912 22.8448 25.112 21.9488 24.088C21.0741 23.0427 20.4128 21.7947 19.9648 20.344C19.5381 18.8933 19.3248 17.2827 19.3248 15.512C19.3248 13.144 19.7088 11.0853 20.4768 9.336C21.2661 7.58667 22.4608 6.232 24.0608 5.272C25.6821 4.29067 27.7408 3.8 30.2368 3.8C32.7114 3.8 34.7488 4.29067 36.3488 5.272C37.9488 6.232 39.1328 7.59733 39.9008 9.368C40.6901 11.1173 41.0848 13.176 41.0848 15.544ZM24.4128 15.544C24.4128 17.144 24.6154 18.52 25.0208 19.672C25.4261 20.824 26.0554 21.7093 26.9088 22.328C27.7621 22.9467 28.8608 23.256 30.2048 23.256C31.5914 23.256 32.7008 22.9467 33.5328 22.328C34.3861 21.7093 35.0048 20.824 35.3888 19.672C35.7941 18.52 35.9968 17.144 35.9968 15.544C35.9968 13.1333 35.5488 11.2453 34.6528 9.88C33.7568 8.51467 32.2848 7.832 30.2368 7.832C28.8714 7.832 27.7621 8.14133 26.9088 8.76C26.0554 9.37867 25.4261 10.264 25.0208 11.416C24.6154 12.568 24.4128 13.944 24.4128 15.544ZM54.4895 14.168H63.5455V26.008C62.3508 26.4133 61.1028 26.7333 59.8015 26.968C58.5215 27.2027 57.0602 27.32 55.4175 27.32C53.1562 27.32 51.2255 26.872 49.6255 25.976C48.0468 25.08 46.8415 23.7573 46.0095 22.008C45.1988 20.2587 44.7935 18.104 44.7935 15.544C44.7935 13.1547 45.2522 11.0853 46.1695 9.336C47.1082 7.58667 48.4628 6.232 50.2335 5.272C52.0042 4.312 54.1695 3.832 56.7295 3.832C57.9455 3.832 59.1402 3.96 60.3135 4.216C61.4868 4.472 62.5535 4.81333 63.5135 5.24L61.9135 9.112C61.2095 8.74933 60.4095 8.45067 59.5135 8.216C58.6175 7.98133 57.6788 7.864 56.6975 7.864C55.2895 7.864 54.0628 8.184 53.0175 8.824C51.9935 9.464 51.1935 10.3707 50.6175 11.544C50.0628 12.696 49.7855 14.0613 49.7855 15.64C49.7855 17.1333 49.9882 18.456 50.3935 19.608C50.7988 20.76 51.4388 21.6667 52.3135 22.328C53.1882 22.968 54.3295 23.288 55.7375 23.288C56.2068 23.288 56.6122 23.2773 56.9535 23.256C57.3162 23.2133 57.6468 23.1707 57.9455 23.128C58.2442 23.064 58.5322 23.0107 58.8095 22.968V18.2H54.4895V14.168ZM89.7098 15.544C89.7098 17.3147 89.4858 18.9253 89.0378 20.376C88.6111 21.8053 87.9498 23.0427 87.0538 24.088C86.1791 25.1333 85.0484 25.9333 83.6618 26.488C82.2964 27.0427 80.6858 27.32 78.8298 27.32C76.9738 27.32 75.3524 27.0427 73.9658 26.488C72.6004 25.912 71.4698 25.112 70.5738 24.088C69.6991 23.0427 69.0378 21.7947 68.5898 20.344C68.1631 18.8933 67.9498 17.2827 67.9498 15.512C67.9498 13.144 68.3338 11.0853 69.1018 9.336C69.8911 7.58667 71.0858 6.232 72.6858 5.272C74.3071 4.29067 76.3658 3.8 78.8618 3.8C81.3364 3.8 83.3738 4.29067 84.9738 5.272C86.5738 6.232 87.7578 7.59733 88.5258 9.368C89.3151 11.1173 89.7098 13.176 89.7098 15.544ZM73.0378 15.544C73.0378 17.144 73.2404 18.52 73.6458 19.672C74.0511 20.824 74.6804 21.7093 75.5338 22.328C76.3871 22.9467 77.4858 23.256 78.8298 23.256C80.2164 23.256 81.3258 22.9467 82.1578 22.328C83.0111 21.7093 83.6298 20.824 84.0138 19.672C84.4191 18.52 84.6218 17.144 84.6218 15.544C84.6218 13.1333 84.1738 11.2453 83.2778 9.88C82.3818 8.51467 80.9098 7.832 78.8618 7.832C77.4964 7.832 76.3871 8.14133 75.5338 8.76C74.6804 9.37867 74.0511 10.264 73.6458 11.416C73.2404 12.568 73.0378 13.944 73.0378 15.544Z" fill="black"/>
</g>
<defs>
<clipPath id="clip0_2032_442">
<rect width="115" height="30" fill="white"/>
</clipPath>
</defs>
</svg>
